<svg width="24" height="19" viewBox="0 0 24 19" fill="none" xmlns="http://www.w3.org/2000/svg">
<rect width="24" height="12" rx="2" fill="#C2CFE0"/>
<path d="M12.9 14.7999L10.1 13.3999L9.40002 14.0999L10.8 16.1999L12.2 16.8999L13.8488 18.5799H17.8L18.5 18.2999L19.9 17.5999L20.6 16.1999V11.2999L19.9 10.5999H19.2L18.5 9.89985H17.1L16.4 9.19985L15.7 9.89985L15 9.19985V6.39985V5.69985L14.3 5.41992L13.6 5.69992V14.0999L12.9 14.7999Z" fill="#A0AEC1"/>
<path d="M19.6669 10.25C19.4515 10.25 19.2496 10.3087 19.0761 10.4109C19.0109 9.82874 18.5159 9.375 17.9169 9.375C17.632 9.375 17.3703 9.47811 17.1669 9.64986C16.9627 9.31063 16.591 9.08332 16.1669 9.08332C15.9547 9.08332 15.7553 9.14028 15.5835 9.23998V6.16668C15.5835 5.52322 15.0603 5 14.4169 5C13.7734 5 13.2502 5.52322 13.2502 6.16668V13.9727C13.2502 14.1197 13.1533 14.1952 13.1118 14.2208C13.0702 14.2465 12.9582 14.2992 12.8281 14.2337L10.955 13.2971C10.7844 13.2117 10.5933 13.1667 10.4025 13.1667C9.72113 13.1667 9.16687 13.721 9.16687 14.4023V14.625C9.16687 14.7059 9.20048 14.7831 9.25943 14.8383L12.6259 17.9803C13.3305 18.6377 14.2494 19 15.213 19H17.0418C19.1325 19 20.8335 17.299 20.8335 15.2083V11.4167C20.8335 10.7732 20.3103 10.25 19.6669 10.25ZM20.2502 15.2083C20.2502 16.9774 18.811 18.4166 17.0419 18.4166H15.213C14.3978 18.4166 13.6202 18.1102 13.0241 17.5536L9.75019 14.4983V14.4023C9.75019 14.0425 10.0427 13.75 10.4025 13.75C10.503 13.75 10.6041 13.7739 10.6941 13.8189L12.5672 14.7555C12.8403 14.8924 13.1588 14.8774 13.4185 14.7173C13.6783 14.5566 13.8335 14.2784 13.8335 13.9727V6.16668C13.8335 5.84511 14.0953 5.58335 14.4168 5.58335C14.7384 5.58335 15.0002 5.84511 15.0002 6.16668V10.5417C15.0002 10.7029 15.1306 10.8334 15.2918 10.8334C15.4531 10.8334 15.5835 10.7029 15.5835 10.5417V10.25C15.5835 9.92844 15.8453 9.66668 16.1668 9.66668C16.4884 9.66668 16.7502 9.92844 16.7502 10.25V10.5417C16.7502 10.5423 16.7502 10.5428 16.7502 10.5434V10.5437C16.7513 10.7037 16.8815 10.8334 17.0418 10.8334C17.2031 10.8334 17.3335 10.7029 17.3335 10.5417V10.5371C17.3358 10.2178 17.5973 9.95832 17.9168 9.95832C18.2384 9.95832 18.5002 10.2201 18.5002 10.5416V11.4166C18.5002 11.5779 18.6306 11.7083 18.7918 11.7083C18.9531 11.7083 19.0835 11.5779 19.0835 11.4166C19.0835 11.0951 19.3453 10.8333 19.6668 10.8333C19.9884 10.8333 20.2502 11.0951 20.2502 11.4167V15.2083Z" fill="#A0AEC1"/>
</svg>
