<svg width="18" height="16" viewBox="0 0 18 16" fill="none" xmlns="http://www.w3.org/2000/svg">
<path d="M6.71523 15.3843C5.93685 15.3843 5.13568 15.3213 4.32969 15.1949C2.91013 14.9722 1.47312 14.2296 1.06649 14.0073L0 13.4242L1.15466 13.0445C2.41685 12.6295 3.18465 12.372 4.1351 11.9688C3.18341 11.5079 2.44994 10.6789 2.09687 9.60714L1.82825 8.79168L2.04853 8.82533C1.83965 8.6148 1.67472 8.40112 1.54687 8.2068C1.09217 7.51617 0.851437 6.67228 0.902661 5.94911L0.953197 5.23733L1.37933 5.4024C1.19956 5.06292 1.06965 4.70037 0.993297 4.32038C0.807217 3.39369 0.962948 2.40917 1.43192 1.54826L1.80312 0.866831L2.29957 1.46311C3.86964 3.34919 5.8583 4.46801 8.21856 4.79554C8.12216 4.13101 8.19439 3.48968 8.43348 2.91482C8.71185 2.24548 9.20706 1.6779 9.86513 1.27333C10.596 0.824122 11.4823 0.606455 12.3608 0.660426C13.2929 0.717692 14.1391 1.06692 14.8112 1.67103C15.1394 1.58575 15.3812 1.4947 15.7081 1.37165C15.9047 1.29763 16.1277 1.21359 16.4068 1.11746L17.4351 0.763148L16.7645 2.67834C16.8087 2.67463 16.8543 2.67147 16.902 2.66941L18.0001 2.6197L17.351 3.50671C17.3138 3.55752 17.3044 3.57194 17.2912 3.59185C17.2389 3.67068 17.1738 3.76873 16.2829 4.95828C16.0599 5.25614 15.9485 5.6441 15.9693 6.05087C16.0482 7.59664 15.8586 8.9952 15.4052 10.2075C14.9765 11.3545 14.3121 12.3386 13.4307 13.1325C12.3401 14.1147 10.9493 14.7872 9.29701 15.1311C8.48649 15.2997 7.6161 15.3843 6.71523 15.3843Z" fill="#C2CFE0"/>
</svg>
