<svg width="18" height="18" viewBox="0 0 18 18" fill="none" xmlns="http://www.w3.org/2000/svg">
<path fill-rule="evenodd" clip-rule="evenodd" d="M6.6 8.6H1.4V1.4H6.6V8.6ZM6.6 16.6V13.4H1.4V16.6H6.6ZM16.6 16.6V9.4H11.4V16.6H16.6ZM11.4 4.6H16.6V1.4H11.4V4.6ZM1 10C0.447715 10 0 9.55228 0 9V1C0 0.447715 0.447715 0 1 0H7C7.55228 0 8 0.447716 8 1V9C8 9.55229 7.55228 10 7 10H1ZM1 18C0.447715 18 0 17.5523 0 17V13C0 12.4477 0.447715 12 1 12H7C7.55228 12 8 12.4477 8 13V17C8 17.5523 7.55228 18 7 18H1ZM11 18C10.4477 18 10 17.5523 10 17V9C10 8.44772 10.4477 8 11 8H17C17.5523 8 18 8.44772 18 9V17C18 17.5523 17.5523 18 17 18H11ZM10 1C10 0.447715 10.4477 0 11 0H17C17.5523 0 18 0.447715 18 1V5C18 5.55228 17.5523 6 17 6H11C10.4477 6 10 5.55228 10 5V1Z" fill="#109CF1"/>
</svg>
