<?xml version="1.0" encoding="UTF-8" standalone="no"?>
<svg
   width="24"
   height="24"
   viewBox="0 0 24 24"
   fill="none"
   version="1.1"
   id="svg1374"
   sodipodi:docname="menu-tasks.svg"
   inkscape:version="1.1.1 (3bf5ae0d25, 2021-09-20)"
   xmlns:inkscape="http://www.inkscape.org/namespaces/inkscape"
   xmlns:sodipodi="http://sodipodi.sourceforge.net/DTD/sodipodi-0.dtd"
   xmlns="http://www.w3.org/2000/svg"
   xmlns:svg="http://www.w3.org/2000/svg">
  <defs
     id="defs1378" />
  <sodipodi:namedview
     id="namedview1376"
     pagecolor="#ffffff"
     bordercolor="#666666"
     borderopacity="1.0"
     inkscape:pageshadow="2"
     inkscape:pageopacity="0.0"
     inkscape:pagecheckerboard="0"
     showgrid="false"
     inkscape:zoom="26.333333"
     inkscape:cx="11.981013"
     inkscape:cy="12"
     inkscape:window-width="1368"
     inkscape:window-height="860"
     inkscape:window-x="-6"
     inkscape:window-y="-6"
     inkscape:window-maximized="1"
     inkscape:current-layer="svg1374" />
  <path
     style="color:#000000;fill:#c2cfe0;-inkscape-stroke:none"
     d="M 3,3 C 2.4464741,3 2,3.4464741 2,4 v 6 c 0,0.553526 0.4464741,1 1,1 h 17 c 0.553526,0 1,-0.446474 1,-1 V 4 C 21,3.4464741 20.553526,3 20,3 Z M 3.4003906,4.4003906 H 19.599609 V 9.5996094 H 3.4003906 Z M 3,13 c -0.5535259,0 -1,0.446474 -1,1 v 6 c 0,0.553526 0.4464741,1 1,1 h 17 c 0.553526,0 1,-0.446474 1,-1 v -6 c 0,-0.553526 -0.446474,-1 -1,-1 z m 0.4003906,1.400391 H 19.599609 v 5.199218 H 3.4003906 Z"
     id="path1372" />
</svg>
