<svg width="20" height="20" viewBox="0 0 20 20" fill="none" xmlns="http://www.w3.org/2000/svg">
<path fill-rule="evenodd" clip-rule="evenodd" d="M8.63902 11.2467C5.36444 11.6019 0.666626 13.1358 0.666626 15.8332V19.3332H19.3333V15.8332C19.3333 13.1358 14.6355 11.6019 11.3609 11.2467C10.8681 11.1933 10.4075 11.1665 9.99996 11.1665C9.59246 11.1665 9.13186 11.1933 8.63902 11.2467ZM8.74422 9.82911C9.14372 9.94037 9.56486 9.99984 9.99996 9.99984C10.4351 9.99984 10.8562 9.94037 11.2557 9.82911C13.2236 9.28107 14.6666 7.47641 14.6666 5.33317C14.6666 2.75484 12.5783 0.666504 9.99996 0.666504C7.42163 0.666504 5.33329 2.75484 5.33329 5.33317C5.33329 7.47641 6.77628 9.28107 8.74422 9.82911ZM17.9333 17.9332V15.8332C17.9333 15.5715 17.8133 15.2388 17.3635 14.8236C16.9041 14.3996 16.2007 13.9908 15.3141 13.6357C13.5388 12.9245 11.3824 12.5665 9.99996 12.5665C8.61747 12.5665 6.46111 12.9245 4.68579 13.6357C3.79925 13.9908 3.0958 14.3996 2.63643 14.8236C2.18657 15.2388 2.06663 15.5715 2.06663 15.8332V17.9332H17.9333ZM9.99996 2.0665C8.19482 2.0665 6.73329 3.52804 6.73329 5.33317C6.73329 7.13831 8.19482 8.59984 9.99996 8.59984C11.8051 8.59984 13.2666 7.13831 13.2666 5.33317C13.2666 3.52804 11.8051 2.0665 9.99996 2.0665Z" fill="#109CF1"/>
</svg>
