<?xml version="1.0" encoding="UTF-8" standalone="no"?>
<svg
   width="24"
   height="24"
   viewBox="0 0 24 24"
   fill="none"
   version="1.1"
   id="svg1130"
   sodipodi:docname="menu-email.svg"
   inkscape:version="1.1.1 (3bf5ae0d25, 2021-09-20)"
   xmlns:inkscape="http://www.inkscape.org/namespaces/inkscape"
   xmlns:sodipodi="http://sodipodi.sourceforge.net/DTD/sodipodi-0.dtd"
   xmlns="http://www.w3.org/2000/svg"
   xmlns:svg="http://www.w3.org/2000/svg">
  <defs
     id="defs1134" />
  <sodipodi:namedview
     id="namedview1132"
     pagecolor="#ffffff"
     bordercolor="#666666"
     borderopacity="1.0"
     inkscape:pageshadow="2"
     inkscape:pageopacity="0.0"
     inkscape:pagecheckerboard="0"
     showgrid="false"
     inkscape:zoom="26.333333"
     inkscape:cx="11.981013"
     inkscape:cy="12"
     inkscape:window-width="1368"
     inkscape:window-height="860"
     inkscape:window-x="-6"
     inkscape:window-y="-6"
     inkscape:window-maximized="1"
     inkscape:current-layer="svg1130" />
  <path
     style="color:#000000;fill:#c2cfe0;-inkscape-stroke:none"
     d="M 4,4 C 2.907987,4 2.009766,4.904284 2.009766,6 L 2,18 c 2.31e-4,1.096908 0.902987,2 2,2 h 16 c 1.09712,0 2,-0.90288 2,-2 V 6 C 22,4.90288 21.09712,4 20,4 Z m 0,1.400391 h 16 c 0.329679,0 0.599609,0.269931 0.599609,0.599609 v 12 c 0,0.329679 -0.26993,0.599609 -0.599609,0.599609 H 4 C 3.670395,18.599609 3.40046,18.329491 3.400391,18 l 0.0098,-12 c 0,-0.340242 0.264178,-0.599609 0.589843,-0.599609 z"
     id="path1126" />
  <path
     style="color:#000000;fill:#c2cfe0;-inkscape-stroke:none"
     d="M 3.3886719,5.4179687 2.6113281,6.5820312 12,12.841797 21.388672,6.5820312 20.611328,5.4179687 12,11.158203 Z"
     id="path1128" />
</svg>
