<?xml version="1.0" encoding="UTF-8" standalone="no"?>
<svg
   width="24"
   height="24"
   viewBox="0 0 24 24"
   fill="none"
   version="1.1"
   id="svg874"
   sodipodi:docname="menu-dashboard.svg"
   inkscape:version="1.1.1 (3bf5ae0d25, 2021-09-20)"
   xmlns:inkscape="http://www.inkscape.org/namespaces/inkscape"
   xmlns:sodipodi="http://sodipodi.sourceforge.net/DTD/sodipodi-0.dtd"
   xmlns="http://www.w3.org/2000/svg"
   xmlns:svg="http://www.w3.org/2000/svg">
  <defs
     id="defs878" />
  <sodipodi:namedview
     id="namedview876"
     pagecolor="#ffffff"
     bordercolor="#666666"
     borderopacity="1.0"
     inkscape:pageshadow="2"
     inkscape:pageopacity="0.0"
     inkscape:pagecheckerboard="0"
     showgrid="false"
     inkscape:zoom="25.416667"
     inkscape:cx="11.980328"
     inkscape:cy="12"
     inkscape:window-width="1368"
     inkscape:window-height="860"
     inkscape:window-x="-6"
     inkscape:window-y="-6"
     inkscape:window-maximized="1"
     inkscape:current-layer="svg874" />
  <path
     style="color:#000000;fill:#c2cfe0;-inkscape-stroke:none"
     d="M 4,3 C 3.4560258,3 3,3.4560258 3,4 v 8 c 0,0.543961 0.456054,1 1,1 h 6 c 0.543933,0 1,-0.456067 1,-1 V 4 C 11,3.456054 10.543961,3 10,3 Z m 10,0 c -0.543961,0 -1,0.456054 -1,1 v 4 c 0,0.543946 0.456039,1 1,1 h 6 c 0.543961,0 1,-0.456054 1,-1 V 4 C 21,3.456054 20.543961,3 20,3 Z M 4.4003906,4.4003906 H 9.5996094 V 11.599609 H 4.4003906 Z m 10.0000004,0 h 5.199218 V 7.5996094 H 14.400391 Z M 14,11 c -0.543933,0 -1,0.456067 -1,1 v 8 c 0,0.543933 0.456067,1 1,1 h 6 c 0.543933,0 1,-0.456067 1,-1 v -8 c 0,-0.543933 -0.456067,-1 -1,-1 z m 0.400391,1.400391 h 5.199218 v 7.199218 H 14.400391 Z M 4,15 c -0.5439589,0 -1,0.45601 -1,1 v 4 c 0,0.543961 0.456054,1 1,1 h 6 c 0.543933,0 1,-0.456067 1,-1 v -4 c 0,-0.543933 -0.456067,-1 -1,-1 z m 0.4003906,1.400391 h 5.1992188 v 3.199218 H 4.4003906 Z"
     id="path872" />
</svg>
