<?xml version="1.0" encoding="UTF-8" standalone="no"?>
<svg
   width="24"
   height="24"
   viewBox="0 0 24 24"
   fill="none"
   version="1.1"
   id="svg1212"
   sodipodi:docname="menu-contacts.svg"
   inkscape:version="1.1.1 (3bf5ae0d25, 2021-09-20)"
   xmlns:inkscape="http://www.inkscape.org/namespaces/inkscape"
   xmlns:sodipodi="http://sodipodi.sourceforge.net/DTD/sodipodi-0.dtd"
   xmlns="http://www.w3.org/2000/svg"
   xmlns:svg="http://www.w3.org/2000/svg">
  <defs
     id="defs1216" />
  <sodipodi:namedview
     id="namedview1214"
     pagecolor="#ffffff"
     bordercolor="#666666"
     borderopacity="1.0"
     inkscape:pageshadow="2"
     inkscape:pageopacity="0.0"
     inkscape:pagecheckerboard="0"
     showgrid="false"
     inkscape:zoom="26.333333"
     inkscape:cx="11.981013"
     inkscape:cy="12"
     inkscape:window-width="1368"
     inkscape:window-height="860"
     inkscape:window-x="-6"
     inkscape:window-y="-6"
     inkscape:window-maximized="1"
     inkscape:current-layer="svg1212" />
  <path
     style="color:#000000;fill:#c2cfe0;-inkscape-stroke:none"
     d="m 12,2.6660156 c -2.5696919,0 -4.6660156,2.0983204 -4.6660156,4.6679688 C 7.3339844,9.903641 9.4303188,12 12,12 c 2.569615,0 4.666016,-2.0963654 4.666016,-4.6660156 0,-2.569642 -2.09639,-4.6679688 -4.666016,-4.6679688 z m 0,1.4003906 c 1.81377,0 3.265625,1.4537645 3.265625,3.2675782 0,1.8138253 -1.451844,3.2656246 -3.265625,3.2656246 -1.813874,0 -3.2675781,-1.4518057 -3.2675781,-3.2656246 0,-1.8138073 1.4537141,-3.2675781 3.2675781,-3.2675782 z m 0,9.0996098 c -1.588856,0 -3.868976,0.382709 -5.8339844,1.169922 C 5.1839028,14.729307 4.3282844,15.203485 3.6875,15.794922 3.0538129,16.379801 2.6660156,17.086448 2.6660156,17.833984 v 3.5 H 21.333984 v -3.5 c 0,-0.747545 -0.387739,-1.454184 -1.021484,-2.039062 C 19.671734,15.203491 18.816148,14.72931 17.833984,14.335938 15.869017,13.548725 13.588856,13.166016 12,13.166016 Z m 0,1.40039 c 1.351142,0 3.560224,0.365574 5.314453,1.06836 0.876435,0.351026 1.598595,0.773885 2.048828,1.189453 0.447855,0.413321 0.570313,0.719711 0.570313,1.009765 v 2.09961 H 4.0664062 v -2.09961 c 0,-0.290063 0.1225007,-0.596445 0.5703125,-1.009765 C 5.0869533,16.408657 5.8091415,15.985796 6.6855469,15.634766 8.4398148,14.931979 10.648858,14.566406 12,14.566406 Z"
     id="path1210" />
</svg>
