<svg width="20" height="16" viewBox="0 0 20 16" fill="none" xmlns="http://www.w3.org/2000/svg">
<path fill-rule="evenodd" clip-rule="evenodd" d="M1.41 2L1.4 14C1.4 14.0001 1.4 13.9999 1.4 14C1.40023 14.3266 1.67334 14.6 2 14.6H18C18.3268 14.6 18.6 14.3268 18.6 14V2C18.6 1.6732 18.3268 1.4 18 1.4H2C1.68232 1.4 1.41 1.66405 1.41 2ZM0 14L0.00999999 2C0.00999999 0.9 0.9 0 2 0H18C19.1 0 20 0.9 20 2V14C20 15.1 19.1 16 18 16H2C0.9 16 0 15.1 0 14Z" fill="#109CF1"/>
<path fill-rule="evenodd" clip-rule="evenodd" d="M0.611694 2.58235L1.38827 1.41748L9.99998 7.15862L18.6117 1.41748L19.3883 2.58235L9.99998 8.84121L0.611694 2.58235Z" fill="#109CF1"/>
</svg>
