<svg width="20" height="21" viewBox="0 0 20 21" fill="none" xmlns="http://www.w3.org/2000/svg">
<path d="M8.59998 8.3999C10.81 8.3999 12.6 6.6099 12.6 4.3999C12.6 2.1899 10.81 0.399902 8.59998 0.399902C6.38998 0.399902 4.59998 2.1899 4.59998 4.3999C4.59998 6.6099 6.38998 8.3999 8.59998 8.3999ZM8.59998 10.3999C5.92998 10.3999 0.599976 11.7399 0.599976 14.3999V16.3999H16.6V14.3999C16.6 11.7399 11.27 10.3999 8.59998 10.3999Z" fill="#C2CFE0"/>
<path d="M18.5935 15.3225L18.5935 15.3225L18.6003 15.3171C18.9662 15.0244 19.0419 14.524 18.8409 14.1444L18.8344 14.1322L18.8275 14.1202L18.089 12.8417C17.841 12.4039 17.3458 12.2943 16.9735 12.4184L16.952 12.4255L16.9309 12.434L16.377 12.6567C16.3686 12.6518 16.3603 12.647 16.3518 12.6421L16.2684 12.0528L16.2685 12.0528L16.2675 12.0466C16.1964 11.5726 15.7898 11.2505 15.3407 11.2505H13.8595C13.387 11.2505 13.005 11.5955 12.9373 12.0466L12.9373 12.0466L12.9364 12.0528L12.8529 12.6429C12.8448 12.6476 12.8367 12.6523 12.8286 12.657L12.2739 12.434L12.2739 12.434L12.266 12.4309C11.8401 12.2652 11.3482 12.432 11.1159 12.8415L10.3773 14.1202L10.3772 14.1202L10.3712 14.1311C10.1561 14.5183 10.2292 15.0298 10.6152 15.3254L11.073 15.683C11.0729 15.6898 11.0729 15.6966 11.0729 15.7034C11.0729 15.709 11.0729 15.7146 11.073 15.7203L10.6068 16.0844L10.6067 16.0843L10.5999 16.0898C10.234 16.3825 10.1584 16.8829 10.3593 17.2624L10.3658 17.2747L10.3727 17.2866L11.1112 18.5651C11.3592 19.003 11.8544 19.1126 12.2267 18.9885L12.2482 18.9813L12.2693 18.9728L12.8232 18.7501C12.8316 18.755 12.84 18.7599 12.8484 18.7647L12.9318 19.3541L12.9348 19.3752L12.9389 19.3961C13.0219 19.811 13.3815 20.1564 13.8595 20.1564H15.3407C15.7758 20.1564 16.2047 19.8437 16.2652 19.3441L16.3473 18.764C16.3554 18.7593 16.3635 18.7546 16.3716 18.7498L16.9263 18.9728L16.9263 18.9729L16.9342 18.976C17.3601 19.1416 17.852 18.9748 18.0843 18.5653L18.8229 17.2866L18.823 17.2867L18.8291 17.2757C19.0437 16.8893 18.9713 16.3791 18.5873 16.0832L18.1273 15.7195C18.1273 15.7142 18.1273 15.7088 18.1273 15.7034C18.1273 15.6978 18.1273 15.6922 18.1273 15.6866L18.5935 15.3225ZM14.6001 16.342C14.2506 16.342 13.9615 16.0529 13.9615 15.7034C13.9615 15.3539 14.2506 15.0648 14.6001 15.0648C14.9496 15.0648 15.2387 15.3539 15.2387 15.7034C15.2387 16.0529 14.9496 16.342 14.6001 16.342Z" fill="#C2CFE0" stroke="white" stroke-width="1.5"/>
<circle cx="14.6001" cy="15.6005" r="0.6" fill="white"/>
</svg>
